<?xml version="1.0" standalone="no"?>
<!DOCTYPE svg PUBLIC "-//W3C//DTD SVG 20010904//EN"
 "http://www.w3.org/TR/2001/REC-SVG-20010904/DTD/svg10.dtd">
<svg version="1.0" xmlns="http://www.w3.org/2000/svg"
 width="260.000000pt" height="260.000000pt" viewBox="0 0 260.000000 260.000000"
 preserveAspectRatio="xMidYMid meet">
<metadata>
Created by potrace 1.14, written by Peter Selinger 2001-2017
</metadata>
<g transform="translate(0.000000,260.000000) scale(0.100000,-0.100000)"
fill="#000000" stroke="none">
<path d="M1225 2066 c-58 -18 -86 -35 -123 -73 -39 -39 -82 -128 -89 -183 -9
-62 47 -168 137 -260 100 -104 106 -114 86 -145 -15 -23 -46 -26 -46 -4 0 5
-13 15 -30 24 -27 14 -34 14 -66 0 -20 -8 -64 -44 -99 -79 -54 -55 -68 -77
-100 -160 -20 -52 -40 -124 -45 -158 -18 -143 -85 -306 -162 -392 l-44 -49
-134 11 c-236 20 -342 -2 -391 -81 -40 -66 -14 -130 89 -221 88 -77 312 -165
475 -186 105 -13 372 -14 460 -1 34 5 116 7 182 5 460 -15 512 -16 602 -4 52
6 125 22 163 36 38 13 76 24 83 24 29 0 183 83 235 128 64 54 112 124 112 162
0 35 -40 88 -87 115 -50 29 -171 38 -322 24 -63 -6 -124 -8 -137 -5 -30 8
-103 105 -136 181 -30 69 -57 164 -69 248 -30 196 -169 407 -269 407 -23 0
-48 -8 -64 -21 -34 -27 -60 -21 -64 14 -3 24 10 42 81 115 145 149 178 245
123 362 -64 138 -214 209 -351 166z m179 -129 c75 -58 101 -127 72 -189 -20
-42 -130 -174 -152 -182 -23 -9 -57 13 -102 64 -99 113 -114 172 -63 251 56
89 168 114 245 56z m-234 -639 c0 -18 -12 -53 -26 -78 -69 -119 -127 -335
-128 -470 0 -84 27 -216 55 -272 21 -40 25 -88 9 -88 -15 0 -147 68 -154 79
-4 5 -28 17 -55 26 -91 30 -102 73 -37 146 33 36 87 175 102 264 31 178 95
337 159 393 48 43 75 43 75 0z m342 7 c67 -45 125 -183 172 -411 22 -102 58
-196 100 -257 26 -37 37 -63 34 -81 -3 -28 -5 -30 -113 -84 -33 -16 -83 -43
-112 -58 -71 -39 -85 -26 -53 48 33 76 60 210 60 295 0 129 -50 311 -125 457
-34 67 -42 96 -28 109 11 12 27 8 65 -18z m-134 -135 c24 -58 58 -148 75 -200
27 -85 30 -107 30 -210 -1 -100 -5 -128 -32 -211 -25 -77 -40 -105 -74 -143
-60 -63 -95 -59 -156 18 -51 64 -84 181 -89 318 -4 106 -1 126 23 205 14 48
47 138 72 198 70 171 89 174 151 25z m-867 -725 c26 -25 54 -45 61 -45 7 0 29
10 48 21 25 16 45 20 75 17 39 -5 297 -127 357 -169 31 -22 37 -53 12 -63 -26
-10 -316 5 -384 21 -36 8 -87 18 -114 24 -52 10 -283 121 -317 152 -26 24 -21
58 11 74 14 7 63 13 114 13 l89 0 48 -45z m1844 33 c30 -14 34 -57 8 -80 -62
-53 -241 -129 -380 -163 -129 -30 -422 -46 -441 -23 -23 28 22 63 185 143 182
89 212 96 271 66 23 -12 46 -21 52 -21 7 0 31 20 56 45 l43 45 90 0 c50 0 102
-5 116 -12z"/>
</g>
</svg>
